<svg xmlns="http://www.w3.org/2000/svg" width="162" height="162" viewBox="0 0 162 162" xmlns:xlink="http://www.w3.org/1999/xlink">
  <defs>
    <rect id="a" width="160" height="160" rx="80"/>
  </defs>
  <g fill="none" fill-rule="evenodd" transform="translate(1 1)">
    <use fill="#FFFFFF" xlink:href="#a"/>
    <rect width="161" height="161" x="-.5" y="-.5" stroke="#EEEEEE" rx="80"/>
    <g stroke="#B3B3B3" stroke-width="4" transform="translate(42 41)" stroke-linecap="round" stroke-linejoin="round">
      <path d="M28 51.9999994L46.4732274 30.1680038 46.4732274 30.1680038C47.1867156 29.3247906 48.4486713 29.2196276 49.2918845 29.9331157 49.7409855 30.3131243 50 30.8715872 50 31.4598883L50 46.5401116 50 46.5401116C50 47.6446811 50.8954305 48.5401116 52 48.5401116 52.5883011 48.5401116 53.146764 48.2810971 53.5267726 47.8319961L68.4732274 30.1680039 68.4732274 30.1680039C69.1867155 29.3247907 70.4486713 29.2196277 71.2918845 29.9331158 71.7409855 30.3131244 72 30.8715873 72 31.4598884L72 74.0000009 72 74.0000009C72 75.1045704 71.1045695 76.0000009 70 76.0000009L28 76.0000016M22 14L10 14 22 14zM22 30L10 30 22 30zM24 46L8 46 24 46zM26 62L6 62 26 62z"/>
      <path d="M22.145468 1.84259503L28 76 6.16411774 76 6.16411774 76C5.05954824 76 4.16411774 75.1045695 4.16411774 74 4.16411774 73.9474706 4.16618725 73.8949615 4.17032145 73.842595L9.85453197 1.84259503 9.85453197 1.84259503C9.93666002.802306368 10.8048027-.69328878e-15 11.8483283-.88498131e-15L20.1516717 0 20.1516717-.4408921e-16C21.1951973-.35781739e-16 22.06334.802306368 22.145468 1.84259503zM0 76L76 76"/>
    </g>
  </g>
</svg>
