<svg xmlns="http://www.w3.org/2000/svg" width="162" height="162" viewBox="0 0 162 162" xmlns:xlink="http://www.w3.org/1999/xlink">
  <defs>
    <rect id="a" width="160" height="160" rx="80"/>
  </defs>
  <g fill="none" fill-rule="evenodd" transform="translate(1 1)">
    <use fill="#FFFFFF" xlink:href="#a"/>
    <rect width="161" height="161" x="-.5" y="-.5" stroke="#EEEEEE" rx="80"/>
    <g stroke="#B3B3B3" stroke-width="4" transform="translate(52 42)">
      <path d="M20,50 L20,8 M36,8 L36,50" stroke-linecap="square"/>
      <path d="M4,50 L52,50 L4,50 Z M4,36 L52,36 L4,36 Z M4,22 L52,22 L4,22 Z M52,76 L52,8 L4,8 L4,76 L52,76 Z M2,8 L54,8 L54,8 C55.1045695,8 56,7.1045695 56,6 L56,2 L56,2 C56,0.8954305 55.1045695,-2.02906125e-16 54,0 L2,0 L2,0 C0.8954305,2.02906125e-16 -1.3527075e-16,0.8954305 0,2 L0,6 L0,6 C1.3527075e-16,7.1045695 0.8954305,8 2,8 Z"/>
      <path d="M0,76 L20,76 L20,66 C20,61.582 23.582,58 28,58 C32.418,58 36,61.582 36,66 L36,76 L56,76" stroke-linecap="round" stroke-linejoin="round"/>
    </g>
  </g>
</svg>
