<svg xmlns="http://www.w3.org/2000/svg" width="162" height="162" viewBox="0 0 162 162" xmlns:xlink="http://www.w3.org/1999/xlink">
  <defs>
    <rect id="a" width="160" height="160" rx="80"/>
  </defs>
  <g fill="none" fill-rule="evenodd" transform="translate(1 1)">
    <use fill="#FFFFFF" xlink:href="#a"/>
    <rect width="161" height="161" x="-.5" y="-.5" stroke="#EEEEEE" rx="80"/>
    <g stroke="#B3B3B3" stroke-width="4" transform="translate(42 42)" stroke-linecap="round" stroke-linejoin="round">
      <path d="M60 58C60 61.67 63.294 64.57 67.088 63.904 69.5 63.48 71.48 61.5 71.904 59.088 72.422 56.134 70.778 53.482 68.29 52.452 66.862 51.862 66 50.388 66 48.84L66 26M-.68421885e-9 22.0000004L-.8531334e-8 19.1766616-.85313338e-8 19.1766616C-.17696465e-8 18.333778.528443249 17.5813643 1.32131207 17.2953369L16 12.0000001 28 12.0000001 74.2387798 17.5602136 74.2387798 17.5602136C75.2437541 17.6810617 76 18.5336943 76 19.5459085L76 22 76 22C76 23.1045695 75.1045695 24 74 24L2 24.0000004 2 24.0000004C.8954305 24.0000004-.28949683e-9 23.1045699-.58045643e-9 22.0000004zM28 76L28.0000002 3.69425416 28.0000002 3.69425416C28.0000002 2.71657585 27.2931741 1.88219563 26.3287981 1.72146631L18.328798.388132981 18.328798.388132981C17.2392573.206542877 16.2088023.942582218 16.0272122 2.03212286 16.0091017 2.14078571 16 2.25075911 16 2.36092083L16 76 28 76zM16 36L28 36 16 36zM16 48L28 48 16 48zM16 60L28 60 16 60zM40 76L4 76 40 76z"/>
    </g>
  </g>
</svg>
