<svg xmlns="http://www.w3.org/2000/svg" width="162" height="162" viewBox="0 0 162 162" xmlns:xlink="http://www.w3.org/1999/xlink">
  <defs>
    <rect id="a" width="160" height="160" rx="80"/>
  </defs>
  <g fill="none" fill-rule="evenodd" transform="translate(1 1)">
    <use fill="#FFFFFF" xlink:href="#a"/>
    <rect width="161" height="161" x="-.5" y="-.5" stroke="#EEEEEE" rx="80"/>
    <g stroke="#B3B3B3" stroke-width="4" transform="translate(42 42)">
      <path d="M4 42L4 72 4 72C4 73.1045695 4.8954305 74 6 74L36 74 36 38M72 24L72 72 72 72C72 73.1045695 71.1045695 74 70 74L36 74 36 4" stroke-linecap="square"/>
      <rect width="12" height="12" x="14" y="50" stroke-linecap="square" rx="2"/>
      <path d="M30 0L76 24M34.5 24L0 42" stroke-linecap="round" stroke-linejoin="round"/>
      <path d="M57.9757085 50L50.0242915 50C48.9068826 50 48 50.896 48 52L48 74 60 74 60 52C60 50.896 59.0931174 50 57.9757085 50L57.9757085 50zM60 32C60 35.314 57.314 38 54 38 50.686 38 48 35.314 48 32 48 28.686 50.686 26 54 26 57.314 26 60 28.686 60 32L60 32z" stroke-linecap="square"/>
      <path d="M58 12L58 2C58 .896 58.896 0 60 0L66 0C67.104 0 68 .896 68 2L68 18M0 74L76 74" stroke-linecap="round" stroke-linejoin="round"/>
    </g>
  </g>
</svg>
